DataType=double
version=3
OpenSimVersion=4.3-2021-08-27-4bc7ad9
endheader
time	ground_force_r_vx	ground_force_r_vy	ground_force_r_vz	ground_force_l_vx	ground_force_l_vy	ground_force_l_vz
0.352	-52.93160347481881	376.6922351430279	-11.61887413342095	0	0	0
0.35564594	-281.9185416996016	117.9312674556119	-147.045254456266	0	0	0
0.35929188	-822.7672376305882	862.6084210524773	-286.1422488100239	0	0	0
0.36293782	-810.5131075604377	1947.965101748676	-286.9291304800058	0	0	0
0.36658376	-436.0221351488929	2683.342930843698	-99.89143015673471	0	0	0
0.3702297	-277.278133602277	3238.460296887885	104.6362213568598	0	0	0
0.37387564	-164.2784935241777	3664.916670281921	209.6483788996815	0	0	0
0.37752158	-201.3417958511374	3816.651031352639	258.6217677338023	0	0	0
0.38116753	-357.8345306640948	3775.495485164962	258.9236506572886	0	0	0
0.38481347	-366.2136632534433	3690.849276357295	182.8864392705415	0	0	0
0.38845941	-325.3161424590369	3626.390073755768	97.84763442767775	0	0	0
0.39210535	-229.8163950566201	3621.524379583268	78.30011139185764	0	0	0
0.39575129	-23.34596904365485	3634.530523595505	89.12783267305647	0	0	0
0.39939723	131.0307006819224	3562.876449256112	92.46442445454929	0	0	0
0.40304317	227.5739546277227	3473.320430287795	105.4488936001248	0	0	0
0.40668911	371.8323187824827	3391.588564158181	101.3043374991685	0	0	0
0.41033505	515.4719033479213	3125.406134497683	96.73379588277274	0	0	0
0.41398099	590.6346823335061	2857.330122372134	135.507713661221	0	0	0
0.41762693	673.079251164324	2765.790894154013	133.4097920722172	0	0	0
0.42127287	711.458408116005	2202.795247695326	93.56651088127271	0	0	0
0.42491881	449.3705015732352	976.2297127631346	89.8659008190091	0	0	0
0.42856475	59.15780061444119	63.37036899780412	38.07843583779496	0	0	0
0.4322107	0	0	0	0	0	0
0.43585664	0	0	0	0	0	0
0.43950258	0	0	0	0	0	0
0.44314852	0	0	0	0	0	0
0.44679446	0	0	0	0	0	0
0.4504404	0	0	0	0	0	0
0.45408634	0	0	0	0	0	0
0.45773228	0	0	0	0	0	0
0.46137822	0	0	0	0	0	0
0.46502416	0	0	0	0	0	0
0.4686701	0	0	0	0	0	0
0.47231604	0	0	0	0	0	0
0.47596198	0	0	0	0	0	0
0.47960792	0	0	0	0	0	0
0.48325386	0	0	0	0	0	0
0.48689981	0	0	0	0	0	0
0.49054575	0	0	0	0	0	0
0.49419169	0	0	0	0	0	0
0.49783763	0	0	0	0	0	0
0.50148357	0	0	0	0	0	0
0.5051295099999999	0	0	0	0	0	0
0.50877545	0	0	0	0	0	0
0.51242139	0	0	0	0	0	0
0.51606733	0	0	0	0	0	0
0.51971327	0	0	0	0	0	0
0.52335921	0	0	0	0	0	0
0.52700515	0	0	0	0	0	0
0.53065109	0	0	0	0	0	0
0.53429703	0	0	0	0	0	0
